{"title":"5.Days.of.War.2011.DVDRip.AC3.XViD-EP1C","uid":6473223,"size":1485907598,"categoryP":"video","categoryS":"movies","magnet":"?xt=urn:btih:93d7b4a31cc11a537edef1195ae1f9c6247d20b0&amp;dn=5.Days.of.War.2011.DVDRip.AC3.XViD-EP1C&amp;tr=udp%3A%2F%2Ftracker.openbittorrent.com%3A80&amp;tr=udp%3A%2F%2Fopen.demonii.com%3A1337&amp;tr=udp%3A%2F%2Ftracker.coppersurfer.tk%3A6969&amp;tr=udp%3A%2F%2Fexodus.desync.com%3A6969","seeders":0,"leechers":0,"uploader":"sceneline","files":6,"time":1308223837,"description":"- &lt;a href=&quot;\nhttp://www.Speed.Cd&quot; rel=&quot;nofollow&quot; target=&quot;_NEW&quot;&gt;\nhttp://www.Speed.Cd&lt;/a&gt; \n       &lt;a href=&quot;\nhttp://www.Speed.Cd&quot; rel=&quot;nofollow&quot; target=&quot;_NEW&quot;&gt;\nhttp://www.Speed.Cd&lt;/a&gt;       the fast  and The Hottest Private Tracker on the net\n\n(((--Registration will be open on june every weekend--)))\n\nPlease Seed back to make the speed Faster!!!\n\n------------------nfo--------------------------\n                                       \n \n\n                  ::::::::::::  EP1C Presents  ::::::::::::\n\n::File:: 5.Days.of.War.2011.DVDRip.AC3.XViD-EP1C\n\n::Source:::::::: Thanks\n::Language:::::: English\n::Subs:::::::::: English included.\n::IMDB:::::::::: http://www.imdb.com/title/tt1486193/\n\nA drama set centered around the war between Russia and Georgia, and focused \non an American journalist, his cameraman, and a Georgian native who become \ncaught in the crossfire.\n\n::Specs:::::::::\n\nFormat                           : AVI\nFormat/Info                      : Audio Video Interleave\nFile size                        : 1.37 GiB\nDuration                         : 1h 48mn\nOverall bit rate                 : 1 807 Kbps\nWriting application              : VirtualDubMod 1.5.10.2 (build 2540/release)\nWriting library                  : VirtualDubMod build 2540/release\n\nVideo\nID                               : 0\nFormat                           : MPEG-4 Visual\nFormat profile                   : Advanced Simple@L5\nFormat settings, BVOP            : Yes\nFormat settings, QPel            : No\nFormat settings, GMC             : No warppoints\nFormat settings, Matrix          : Default (MPEG)\nMuxing mode                      : Packed bitstream\nCodec ID                         : XVID\nCodec ID/Hint                    : XviD\nDuration                         : 1h 48mn\nBit rate                         : 1 414 Kbps\nWidth                            : 704 pixels\nHeight                           : 288 pixels\nDisplay aspect ratio             : 2.40:1\nFrame rate                       : 25.000 fps\nColor space                      : YUV\nChroma subsampling               : 4:2:0\nBit depth                        : 8 bits\nScan type                        : Progressive\nBits/(Pixel*Frame)               : 0.279\nStream size                      : 1.07 GiB (78%)\nWriting library                  : XviD 58\n\nAudio\nID                               : 1\nFormat                           : AC-3\nFormat/Info                      : Audio Coding 3\nMode extension                   : CM (complete main)\nCodec ID                         : 2000\nDuration                         : 1h 48mn\nBit rate mode                    : Constant\nBit rate                         : 384 Kbps\nChannel(s)                       : 6 channels\nChannel positions                : Front: L C R, Side: L R, LFE\nSampling rate                    : 48.0 KHz\nBit depth                        : 16 bits\nStream size                      : 298 MiB (21%)\nAlignment                        : Split accross interleaves\nInterleave, duration             : 40 ms (1.00 video frame)\nInterleave, preload duration     : 500 ms\n\n::NOTES::::::::: \nPresenting 5 Days of War aka August DVDRip.\nEnjoy. //EP1C\n\n:: Got something we might be interested in? contact us: &lt;a class=&quot;__cf_email__&quot; href=&quot;/cdn-cgi/l/email-protection&quot; data-cfemail=&quot;f89d88919bb8908d8b9095999194d6959d&quot;&gt;[email&amp;#160;protected]&lt;/a&gt;&lt;script cf-hash='f9e31' type=&quot;text/javascript&quot;&gt;\n/* &lt;![CDATA[ */!function(){try{var t=&quot;currentScript&quot;in document?document.currentScript:function(){for(var t=document.getElementsByTagName(&quot;script&quot;),e=t.length;e--;)if(t[e].getAttribute(&quot;cf-hash&quot;))return t[e]}();if(t&amp;&amp;t.previousSibling){var e,r,n,i,c=t.previousSibling,a=c.getAttribute(&quot;data-cfemail&quot;);if(a){for(e=&quot;&quot;,r=parseInt(a.substr(0,2),16),n=2;a.length-n;n+=2)i=parseInt(a.substr(n,2),16)^r,e+=String.fromCharCode(i);e=document.createTextNode(e),c.parentNode.replaceChild(e,c)}}}catch(u){}}();/* ]]&gt; */&lt;/script&gt; ::\n\n::::::::::::::::::::::::::::::::  RESPECT  :::::::::::::::::::::::::::::::::\nIMAGiNE, Rx, FLAWL3SS, ViSiON, HiVE, bobwhite, Wobferry, Vik, OneTwo &amp; All Our Friends!\n\n                 ::::::::::::::::  We Are  ::::::::::::::::  \n               :::::: Surpassing the usual or ordinary ::::::\n::::::::::::::::::    Heroic and impressive in quality    ::::::::::::::::::     \n ::::::::::::::::::::::::::::::::   EP1C   ::::::::::::::::::::::::::::::::\n\n","torrent":{"xt":"urn:btih:93d7b4a31cc11a537edef1195ae1f9c6247d20b0","amp;dn":"5.Days.of.War.2011.DVDRip.AC3.XViD-EP1C","amp;tr":["udp%3A%2F%2Ftracker.openbittorrent.com%3A80","udp%3A%2F%2Fopen.demonii.com%3A1337","udp%3A%2F%2Ftracker.coppersurfer.tk%3A6969","udp%3A%2F%2Fexodus.desync.com%3A6969"],"infoHash":"93d7b4a31cc11a537edef1195ae1f9c6247d20b0","infoHashBuffer":{"type":"Buffer","data":[147,215,180,163,28,193,26,83,126,222,241,25,90,225,249,198,36,125,32,176]},"announce":[],"urlList":[]}}